<?xml version="1.0" encoding="utf-8"?>
<!-- Generator: Adobe Illustrator 27.2.0, SVG Export Plug-In . SVG Version: 6.00 Build 0)  -->
<svg version="1.1" id="mail" xmlns="http://www.w3.org/2000/svg" xmlns:xlink="http://www.w3.org/1999/xlink" x="0px" y="0px"
	 viewBox="0 0 800 800" style="enable-background:new 0 0 800 800;" xml:space="preserve">
<style type="text/css">
	.st0{fill:#1B1B1B;}
</style>
<path class="st0" d="M733.3,277.3V600c0,36.8-29.8,66.7-66.7,66.7H133.3c-36.8,0-66.7-29.8-66.7-66.7V289.7l66.7,36.3L384,462.7
	c4.9,2.7,10.4,4,16,4c5.9-0.1,11.6-1.7,16.7-4.7l250-145.7L733.3,277.3z"/>
<path class="st0" d="M733.3,200L733.3,200l-66.7,39.3L400,395L133.3,250l-66.7-36.7V200c0-36.8,29.8-66.7,66.7-66.7h533.3
	C703.5,133.3,733.3,163.2,733.3,200z"/>
</svg>
