<?xml version="1.0" encoding="utf-8"?>
<!-- Generator: Adobe Illustrator 27.2.0, SVG Export Plug-In . SVG Version: 6.00 Build 0)  -->
<svg version="1.1" id="Layer_1" xmlns="http://www.w3.org/2000/svg" xmlns:xlink="http://www.w3.org/1999/xlink" x="0px" y="0px"
	 viewBox="0 0 500 500" style="enable-background:new 0 0 500 500;" xml:space="preserve">
<style type="text/css">
	.st0{clip-path:url(#SVGID_00000171689946209868083540000007455416349715835553_);}
	.st1{fill:none;}
	.st2{fill:#1E72D9;}
	.st3{fill:#FFFFFF;}
</style>
<g>
	<g>
		<defs>
			<rect id="SVGID_1_" x="77.4" y="45.6" width="353" height="409"/>
		</defs>
		<clipPath id="SVGID_00000141443102706010312260000001258850415261208714_">
			<use xlink:href="#SVGID_1_"  style="overflow:visible;"/>
		</clipPath>
		<g style="clip-path:url(#SVGID_00000141443102706010312260000001258850415261208714_);">
			<path class="st1" d="M253.9,454.1l-176.5-102V148L253.9,46l176.5,102v204.1L253.9,454.1z M87.3,346.4l166.6,96.3l166.6-96.3
				V153.8L254.1,57.5L87.3,153.8V346.4z"/>
		</g>
	</g>
</g>
<polygon class="st2" points="441.4,138.3 248.9,27.1 55.2,140.5 53.9,365 246.4,476.1 440.2,362.8 "/>
<g>
	<g transform="translate(93.280472, 234.938445)">
		<g>
			<path class="st3" d="M86,59.3c-13.7,0-25.5-6.8-26.2-21.8h-28C32,68.1,57.3,81.8,84.9,81.8c25.6,0,52-10.9,52-40.4
				c0-47.8-72.5-31.7-72.5-54c0-9.4,10.9-13.1,18.6-13.1c13.8,0,21.4,4.2,22.9,17.3h26.7c-0.9-28.6-24.2-40-50-40
				c-22.9,0-46.9,12.2-46.9,38c0,46.3,72.5,30.6,72.5,55C108.4,55.8,94.7,59.3,86,59.3z"/>
		</g>
	</g>
</g>
<g>
	<g transform="translate(180.441954, 234.938445)">
		<g>
			<path class="st3" d="M163.2,15.9c0,19.4-17.5,37.1-36.9,37.1S89.4,35.3,89.4,15.9S107-21,126.3-21S163.2-3.4,163.2,15.9z
				 M169.7,63.2c12.9-11.8,21.2-28.8,21.2-47c0-34.7-29.9-64.6-64.6-64.6S61.8-18.6,61.8,16.1s29.9,64.6,64.6,64.6
				c5,0,10-0.6,14.8-1.8h57.2v-22h-14.9L169.7,63.2z"/>
		</g>
	</g>
</g>
</svg>
