<?xml version="1.0" encoding="utf-8"?>
<!-- Generator: Adobe Illustrator 27.2.0, SVG Export Plug-In . SVG Version: 6.00 Build 0)  -->
<svg version="1.1" id="Layer_1" xmlns="http://www.w3.org/2000/svg" xmlns:xlink="http://www.w3.org/1999/xlink" x="0px" y="0px"
	 viewBox="0 0 500 500" style="enable-background:new 0 0 500 500;" xml:space="preserve">
<style type="text/css">
	.st0{clip-path:url(#SVGID_00000118382351350556478360000007731397941241329590_);}
	.st1{clip-path:url(#SVGID_00000169537673745900508110000001028846571253436074_);}
	.st2{fill:none;}
	.st3{clip-path:url(#SVGID_00000151516836521035597430000013930455993014957449_);}
	.st4{clip-path:url(#SVGID_00000111888312166319051440000014806095098396956067_);}
	.st5{fill:#01081D;}
	.st6{fill:#1E72D9;}
	.st7{clip-path:url(#SVGID_00000078012998835835416530000005697370110162188702_);}
	.st8{clip-path:url(#SVGID_00000026162950445413768560000017162981424831619997_);}
	.st9{clip-path:url(#SVGID_00000052810226989698360680000009541217487175537839_);}
	.st10{clip-path:url(#SVGID_00000087399274350748415470000009619025937269997722_);}
	.st11{fill:#FFFFFF;}
</style>
<g>
	<defs>
		<rect id="SVGID_1_" x="58.1" y="23.2" width="392" height="454"/>
	</defs>
	<clipPath id="SVGID_00000176021040516031295860000008751003636510666133_">
		<use xlink:href="#SVGID_1_"  style="overflow:visible;"/>
	</clipPath>
	<g style="clip-path:url(#SVGID_00000176021040516031295860000008751003636510666133_);">
		<path d="M254.1,476.7l-196-113.2V137l196-113.2l196,113.2v226.5L254.1,476.7z M69.1,357.1l185,106.9l185-106.9V143.4L254.3,36.5
			L69.1,143.4V357.1z"/>
	</g>
</g>
<g>
	<defs>
		<rect id="SVGID_00000010277360411906301890000011580456725009210796_" x="77.4" y="45.6" width="353" height="409"/>
	</defs>
	<clipPath id="SVGID_00000163793201770765051910000013022930733103936932_">
		<use xlink:href="#SVGID_00000010277360411906301890000011580456725009210796_"  style="overflow:visible;"/>
	</clipPath>
	<g style="clip-path:url(#SVGID_00000163793201770765051910000013022930733103936932_);">
		<path class="st2" d="M253.9,454.1l-176.5-102V148L253.9,46l176.5,102v204.1L253.9,454.1z M87.3,346.4l166.6,96.3l166.6-96.3V153.8
			L254.1,57.5L87.3,153.8V346.4z"/>
	</g>
</g>
<g>
	<defs>
		<rect id="SVGID_00000134946605593637156030000009937594533305276078_" x="65.5" y="32" width="377" height="435.8"/>
	</defs>
	<clipPath id="SVGID_00000119087852097929503380000006032825695141948325_">
		<use xlink:href="#SVGID_00000134946605593637156030000009937594533305276078_"  style="overflow:visible;"/>
	</clipPath>
	<g style="clip-path:url(#SVGID_00000119087852097929503380000006032825695141948325_);">
		<path d="M254,467.3L65.5,358.5V141L254,32.2L442.5,141v217.5L254,467.3z M76.1,352.4L254,455.1l177.9-102.7V147.1L254.2,44.5
			L76.1,147.1V352.4z"/>
	</g>
</g>
<g>
	<defs>
		<rect id="SVGID_00000093178613685348096110000000802116186259552642_" x="69.7" y="36.6" width="369" height="427"/>
	</defs>
	<clipPath id="SVGID_00000118397928429039760050000014900602261391668109_">
		<use xlink:href="#SVGID_00000093178613685348096110000000802116186259552642_"  style="overflow:visible;"/>
	</clipPath>
	<g style="clip-path:url(#SVGID_00000118397928429039760050000014900602261391668109_);">
		<path class="st5" d="M254.2,463.2L69.7,356.6V143.6L254.2,37.1l184.5,106.5v213.1L254.2,463.2z M80,350.6l174.1,100.5l174.1-100.5
			v-201L254.4,49.1L80,149.6V350.6z"/>
	</g>
</g>
<polygon class="st6" points="434.1,142.3 254.2,38.4 73.2,144.3 72,354.1 251.9,458 433,352.1 "/>
<g>
	<defs>
		<rect id="SVGID_00000133508750456003288390000010965233424575131319_" x="58.7" y="23.8" width="392" height="454"/>
	</defs>
	<clipPath id="SVGID_00000028320516829689382600000011183294101744247719_">
		<use xlink:href="#SVGID_00000133508750456003288390000010965233424575131319_"  style="overflow:visible;"/>
	</clipPath>
	<g style="clip-path:url(#SVGID_00000028320516829689382600000011183294101744247719_);">
		<path d="M254.7,477.3L58.7,364V137.5l196-113.2l196,113.2V364L254.7,477.3z M69.7,357.6l185,106.9l185-106.9V143.9L254.9,37
			L69.7,143.9V357.6z"/>
	</g>
</g>
<g>
	<defs>
		<rect id="SVGID_00000112608451666205160140000017101605646323659199_" x="78" y="46.1" width="353" height="409"/>
	</defs>
	<clipPath id="SVGID_00000098899634452358806060000006283962269706960812_">
		<use xlink:href="#SVGID_00000112608451666205160140000017101605646323659199_"  style="overflow:visible;"/>
	</clipPath>
	<g style="clip-path:url(#SVGID_00000098899634452358806060000006283962269706960812_);">
		<path class="st5" d="M254.5,454.7L78,352.6V148.6l176.5-102l176.5,102v204.1L254.5,454.7z M87.9,346.9l166.6,96.3l166.6-96.3
			V154.3L254.7,58L87.9,154.3V346.9z"/>
	</g>
</g>
<g>
	<defs>
		<rect id="SVGID_00000029753548624825564320000003014167791214069154_" x="66.1" y="32.5" width="377" height="435.8"/>
	</defs>
	<clipPath id="SVGID_00000103965775140511744300000005464819951148332168_">
		<use xlink:href="#SVGID_00000029753548624825564320000003014167791214069154_"  style="overflow:visible;"/>
	</clipPath>
	<g style="clip-path:url(#SVGID_00000103965775140511744300000005464819951148332168_);">
		<path d="M254.6,467.8L66.1,359.1V141.5L254.6,32.8l188.5,108.7v217.5L254.6,467.8z M76.6,352.9l177.9,102.7l177.9-102.7V147.7
			L254.8,45L76.6,147.7V352.9z"/>
	</g>
</g>
<g>
	<defs>
		<rect id="SVGID_00000040565960788241598080000000030995042484705449_" x="70.3" y="37.2" width="369" height="427"/>
	</defs>
	<clipPath id="SVGID_00000134242561198750198160000011911708026957553829_">
		<use xlink:href="#SVGID_00000040565960788241598080000000030995042484705449_"  style="overflow:visible;"/>
	</clipPath>
	<g style="clip-path:url(#SVGID_00000134242561198750198160000011911708026957553829_);">
		<path class="st5" d="M254.8,463.7L70.3,357.2V144.1L254.8,37.6l184.5,106.5v213.1L254.8,463.7z M80.6,351.2l174.1,100.5
			l174.1-100.5v-201L255,49.6L80.6,150.1V351.2z"/>
	</g>
</g>
<g>
	<g transform="translate(93.280472, 234.938445)">
		<g>
			<path class="st11" d="M91.4,59.3c-13.7,0-25.5-6.8-26.2-21.8h-28c0.2,30.6,25.5,44.3,53.1,44.3c25.6,0,52-10.9,52-40.4
				c0-47.8-72.5-31.7-72.5-54c0-9.4,10.9-13.1,18.6-13.1c13.8,0,21.4,4.2,22.9,17.3h26.7c-0.9-28.6-24.2-40-50-40
				c-22.9,0-46.9,12.2-46.9,38c0,46.3,72.5,30.6,72.5,55C113.8,55.8,100.1,59.3,91.4,59.3z"/>
		</g>
	</g>
</g>
<g>
	<g transform="translate(180.441954, 234.938445)">
		<g>
			<path class="st11" d="M168.6,15.9c0,19.4-17.5,37.1-36.9,37.1S94.8,35.3,94.8,15.9S112.4-21,131.7-21S168.6-3.4,168.6,15.9z
				 M175.1,63.2c12.9-11.8,21.2-28.8,21.2-47c0-34.7-29.9-64.6-64.6-64.6S67.2-18.6,67.2,16.1c0,34.7,29.9,64.6,64.6,64.6
				c5,0,10-0.6,14.8-1.8h57.2v-22h-14.9L175.1,63.2z"/>
		</g>
	</g>
</g>
</svg>
